<?xml version="1.0" standalone="no"?>
<!DOCTYPE svg PUBLIC "-//W3C//DTD SVG 20010904//EN"
 "http://www.w3.org/TR/2001/REC-SVG-20010904/DTD/svg10.dtd">
<svg version="1.0" xmlns="http://www.w3.org/2000/svg"
 width="1249.000000pt" height="1249.000000pt" viewBox="0 0 1249.000000 1249.000000"
 preserveAspectRatio="xMidYMid meet">

<g transform="translate(0.000000,1249.000000) scale(0.100000,-0.100000)"
fill="#000000" stroke="none">
<path d="M10215 11785 c-17 -13 -35 -24 -42 -25 -6 0 -26 -12 -44 -27 -41 -35
-168 -110 -285 -168 -51 -25 -97 -52 -104 -59 -6 -8 -25 -18 -42 -22 -17 -3
-45 -15 -62 -25 -17 -10 -38 -19 -46 -19 -9 0 -34 -9 -55 -21 -58 -30 -206
-77 -279 -89 -35 -5 -81 -17 -102 -26 -37 -16 -178 -35 -381 -53 -144 -12
-453 18 -553 53 -36 13 -83 28 -105 34 -60 15 -178 62 -195 76 -8 8 -37 21
-65 30 -27 9 -71 29 -97 44 -26 15 -78 45 -115 66 -37 22 -83 52 -101 68 -18
15 -37 28 -43 28 -6 0 -39 20 -74 45 -84 58 -106 64 -136 32 -25 -26 -133 -87
-155 -87 -7 0 -25 -11 -41 -24 -15 -13 -59 -38 -98 -56 -38 -18 -77 -38 -85
-45 -8 -7 -37 -20 -65 -30 -27 -10 -55 -22 -61 -27 -6 -5 -34 -15 -62 -23 -27
-8 -55 -21 -61 -29 -7 -8 -28 -17 -49 -21 -20 -4 -63 -18 -94 -31 -32 -13 -68
-24 -80 -24 -13 -1 -48 -10 -78 -21 -62 -23 -249 -47 -420 -55 -157 -7 -468
26 -525 55 -21 12 -50 21 -63 21 -13 0 -56 11 -95 24 -40 13 -88 27 -107 31
-19 4 -44 15 -55 25 -11 10 -38 23 -59 30 -53 17 -144 59 -151 70 -3 5 -40 26
-82 47 -41 21 -82 48 -90 60 -8 12 -24 25 -34 28 -11 4 -46 28 -77 53 -87 71
-119 92 -141 92 -26 0 -74 -33 -136 -93 -27 -26 -53 -47 -57 -47 -5 0 -35 -24
-67 -52 -32 -29 -84 -75 -116 -103 -32 -27 -75 -66 -96 -85 -82 -76 -143 -126
-169 -137 -16 -6 -32 -18 -36 -26 -5 -8 -43 -43 -85 -78 -42 -35 -114 -97
-160 -137 -46 -40 -122 -105 -168 -145 -46 -40 -98 -85 -115 -100 -17 -15
-105 -89 -195 -163 -180 -148 -204 -169 -267 -231 -23 -23 -56 -49 -72 -57
-17 -9 -40 -31 -51 -50 -12 -18 -35 -39 -51 -46 -17 -7 -36 -20 -43 -30 -13
-18 -117 -107 -182 -155 -22 -16 -69 -55 -105 -87 -146 -129 -166 -146 -193
-163 -42 -27 -57 -62 -47 -115 8 -42 44 -122 83 -180 9 -14 20 -43 25 -65 5
-23 30 -81 55 -130 26 -49 47 -102 47 -117 0 -16 7 -45 16 -66 9 -20 23 -59
31 -87 8 -27 21 -60 29 -73 8 -12 21 -69 28 -126 8 -57 18 -112 24 -122 6 -11
17 -57 26 -103 9 -45 23 -107 32 -137 12 -43 16 -106 17 -282 0 -209 -1 -232
-21 -290 -12 -34 -22 -73 -22 -87 0 -14 -9 -48 -20 -77 -11 -29 -25 -84 -31
-121 -7 -47 -26 -99 -60 -165 -27 -54 -49 -108 -49 -121 0 -23 -46 -113 -82
-160 -10 -13 -18 -31 -18 -41 0 -9 -14 -39 -32 -66 -17 -27 -41 -65 -54 -84
-12 -19 -25 -46 -29 -60 -4 -14 -17 -36 -29 -50 -25 -28 -55 -73 -73 -110 -7
-14 -29 -45 -48 -70 -19 -25 -40 -56 -47 -70 -6 -14 -22 -36 -34 -50 -29 -33
-168 -239 -189 -280 -10 -18 -21 -38 -26 -44 -23 -28 -69 -102 -69 -113 0 -6
-12 -26 -27 -44 -15 -17 -41 -59 -58 -93 -17 -34 -39 -73 -48 -86 -44 -62 -71
-107 -80 -135 -5 -16 -17 -39 -26 -50 -26 -30 -81 -143 -81 -164 0 -10 -10
-31 -22 -46 -22 -28 -41 -74 -77 -186 -10 -30 -25 -66 -34 -80 -8 -13 -22 -49
-31 -79 -24 -88 -46 -151 -71 -205 -13 -27 -27 -75 -30 -105 -4 -30 -14 -71
-22 -90 -8 -19 -19 -62 -24 -95 -4 -34 -17 -81 -29 -107 -15 -34 -22 -83 -29
-200 -6 -85 -16 -188 -23 -229 -16 -95 -16 -467 -1 -535 7 -28 17 -111 23
-184 8 -91 18 -146 30 -170 10 -20 23 -61 29 -93 6 -31 15 -66 21 -76 5 -11
15 -43 21 -71 6 -29 24 -77 40 -107 16 -30 29 -63 29 -73 0 -11 4 -21 9 -25 5
-3 17 -27 27 -53 9 -26 27 -58 39 -72 12 -14 25 -37 29 -52 3 -15 20 -47 36
-70 30 -42 37 -53 89 -133 14 -22 40 -55 56 -73 17 -18 53 -57 80 -87 28 -30
63 -67 78 -83 84 -81 142 -132 150 -132 5 0 25 -14 44 -30 19 -17 59 -45 89
-63 30 -18 78 -46 107 -64 29 -18 63 -37 77 -42 14 -6 36 -17 50 -25 52 -31
173 -86 189 -86 9 -1 41 -14 71 -30 30 -17 63 -30 73 -30 10 0 37 -9 60 -19
23 -11 68 -24 99 -30 32 -5 71 -17 86 -25 16 -8 60 -20 98 -26 38 -6 89 -17
114 -25 25 -8 82 -19 126 -25 45 -6 106 -19 135 -29 30 -11 88 -22 129 -26 41
-3 111 -13 155 -20 44 -8 159 -21 255 -29 96 -8 195 -22 219 -31 24 -8 85 -22
135 -30 148 -24 285 -60 376 -100 47 -20 104 -43 127 -50 23 -8 53 -21 68 -31
36 -23 83 -49 125 -70 19 -9 58 -35 85 -58 28 -24 64 -51 81 -61 17 -10 39
-31 48 -47 10 -15 29 -36 42 -45 14 -9 58 -57 100 -107 41 -50 93 -113 117
-139 23 -27 46 -60 51 -75 22 -68 65 -71 139 -8 29 24 66 51 84 60 18 9 36 23
41 32 8 15 71 63 167 128 28 18 68 49 91 67 23 19 60 45 84 59 23 14 56 36 74
50 17 14 47 33 66 43 19 10 52 27 72 40 88 53 188 107 197 107 5 0 38 13 73
30 34 16 70 30 78 30 8 0 28 7 45 16 16 8 52 20 80 26 27 6 68 18 90 28 39 18
113 33 320 66 55 9 138 24 185 35 47 10 175 28 285 39 110 11 229 24 265 29
36 6 106 12 156 16 50 3 115 14 145 24 30 10 101 24 159 30 58 7 125 18 150
26 25 7 76 19 114 25 38 6 82 18 97 26 16 8 64 22 106 30 43 9 83 20 88 24 6
4 33 13 60 19 28 7 61 19 74 28 14 9 50 24 80 34 116 37 176 61 202 80 15 11
42 22 61 25 18 4 40 13 49 20 8 8 31 19 50 25 19 7 47 23 62 36 16 12 39 23
51 23 13 0 36 11 52 25 16 14 33 25 38 25 4 0 21 11 38 25 16 14 36 25 43 25
7 0 44 25 80 55 37 30 72 55 78 55 6 0 36 23 68 50 32 28 63 50 69 50 7 0 34
22 61 50 27 28 55 50 62 50 8 0 31 20 52 45 20 25 49 52 63 59 15 8 41 32 57
55 17 22 38 43 48 47 10 3 29 24 43 46 14 22 38 47 53 56 16 9 37 31 47 50 10
19 35 48 56 64 20 17 42 43 49 59 6 16 17 33 24 37 7 4 30 32 51 62 21 30 46
62 54 71 8 9 29 40 45 68 17 28 54 83 83 123 28 39 52 77 52 83 0 7 8 23 19
36 10 13 35 58 56 99 20 41 41 82 46 90 43 74 76 144 86 189 8 30 20 63 29 72
8 9 21 40 29 69 7 28 18 56 23 63 5 7 15 39 22 72 6 33 19 71 27 84 24 38 82
258 83 313 0 15 11 60 24 100 13 40 29 125 36 188 6 63 18 166 26 228 15 125
18 472 4 592 -4 41 -18 160 -29 263 -12 108 -27 200 -36 217 -8 16 -22 75 -30
132 -16 113 -55 270 -76 309 -7 13 -21 58 -30 99 -34 144 -50 206 -75 285 -27
88 -57 380 -57 575 -1 136 30 441 49 494 9 22 20 59 26 81 6 22 18 63 29 90
10 28 23 73 29 102 6 28 18 57 25 63 8 6 21 33 29 58 9 26 27 69 41 96 14 27
25 55 25 61 0 7 6 18 14 24 8 7 31 44 51 84 20 40 46 86 58 104 12 17 36 55
52 84 17 28 46 70 66 93 20 23 44 57 54 76 10 19 25 40 34 46 9 7 34 38 56 70
22 33 58 82 80 111 22 28 65 86 95 128 30 43 67 89 83 103 15 15 27 31 27 37
0 6 25 42 55 80 30 38 55 71 55 75 0 3 21 28 46 55 63 68 66 97 17 160 -21 27
-44 56 -50 63 -7 7 -13 17 -13 22 0 5 -18 28 -41 52 -22 23 -49 59 -59 78 -10
19 -28 44 -40 55 -12 11 -36 39 -52 63 -16 23 -39 53 -51 66 -12 13 -38 45
-57 72 -19 26 -44 58 -55 70 -44 51 -64 75 -236 301 -21 29 -48 60 -58 70 -10
10 -25 30 -32 45 -8 14 -36 50 -62 80 -27 29 -80 94 -118 143 -39 50 -86 108
-105 130 -56 65 -121 150 -134 176 -7 13 -21 33 -31 44 -11 11 -40 47 -66 80
-26 33 -66 85 -90 115 -24 30 -62 77 -86 104 -23 27 -46 56 -52 65 -5 10 -23
35 -40 56 -86 111 -121 130 -170 90z m85 -138 c14 -13 41 -47 60 -73 32 -44
84 -112 158 -202 15 -18 48 -56 75 -83 26 -28 47 -54 47 -58 0 -5 24 -38 53
-74 28 -36 68 -87 87 -114 19 -26 64 -84 101 -128 36 -44 73 -94 82 -110 8
-17 29 -40 46 -53 17 -12 40 -40 51 -62 11 -22 24 -40 28 -40 4 -1 23 -24 42
-52 19 -28 59 -77 88 -109 28 -33 52 -63 52 -69 0 -5 20 -31 45 -57 25 -26 53
-65 62 -85 8 -21 19 -38 24 -38 4 0 28 -26 51 -57 88 -119 190 -245 279 -346
26 -28 53 -66 62 -83 9 -17 23 -36 31 -43 27 -22 18 -43 -51 -130 -38 -46 -78
-98 -89 -115 -12 -17 -40 -50 -63 -74 -22 -23 -41 -47 -41 -54 0 -6 -22 -37
-49 -68 -28 -32 -53 -68 -56 -82 -4 -13 -26 -44 -51 -68 -24 -23 -44 -48 -44
-55 0 -8 -25 -44 -55 -80 -30 -37 -55 -74 -55 -81 0 -7 -20 -38 -44 -67 -24
-30 -52 -70 -61 -88 -10 -19 -22 -37 -27 -40 -13 -9 -78 -112 -78 -125 0 -6
-22 -45 -50 -85 -27 -41 -50 -82 -50 -93 0 -10 -20 -60 -45 -112 -27 -55 -51
-124 -59 -168 -8 -41 -22 -85 -30 -98 -8 -13 -20 -48 -27 -78 -6 -30 -17 -66
-24 -80 -19 -37 -40 -302 -40 -495 0 -194 20 -441 40 -500 8 -22 19 -71 25
-110 6 -38 18 -81 27 -94 8 -13 21 -72 29 -132 7 -59 19 -120 27 -136 8 -15
18 -48 22 -73 4 -25 15 -58 25 -75 10 -17 23 -69 29 -118 6 -49 17 -112 26
-140 14 -48 39 -147 67 -257 7 -30 11 -198 11 -505 -1 -438 -2 -464 -22 -535
-12 -41 -28 -115 -36 -163 -9 -48 -20 -99 -25 -112 -5 -14 -14 -64 -20 -112
-6 -49 -17 -98 -25 -110 -8 -11 -20 -43 -26 -70 -6 -26 -20 -61 -29 -78 -10
-16 -21 -54 -25 -84 -4 -30 -18 -69 -31 -89 -13 -19 -24 -40 -24 -46 0 -6 -8
-27 -19 -46 -10 -19 -26 -58 -35 -87 -9 -28 -24 -57 -32 -63 -7 -7 -14 -18
-14 -25 0 -7 -9 -24 -21 -39 -11 -14 -25 -42 -30 -62 -6 -19 -20 -50 -32 -68
-39 -59 -61 -100 -74 -136 -8 -19 -19 -39 -27 -45 -7 -5 -20 -25 -30 -42 -25
-49 -62 -103 -104 -151 -20 -24 -41 -54 -47 -66 -20 -44 -322 -383 -377 -422
-16 -12 -39 -35 -51 -52 -13 -16 -44 -47 -69 -68 -26 -22 -87 -73 -135 -114
-48 -41 -99 -81 -113 -88 -14 -7 -43 -26 -65 -42 -22 -17 -66 -44 -97 -60 -31
-16 -73 -43 -92 -60 -19 -17 -49 -35 -68 -42 -18 -6 -40 -16 -48 -23 -8 -7
-32 -18 -53 -25 -20 -6 -42 -20 -47 -30 -5 -10 -24 -21 -42 -25 -34 -7 -61
-19 -189 -79 -41 -20 -80 -36 -86 -36 -22 0 -182 -57 -208 -74 -15 -10 -55
-22 -89 -27 -33 -5 -85 -18 -114 -29 -29 -11 -62 -20 -75 -20 -12 0 -42 -10
-67 -21 -28 -13 -84 -25 -145 -31 -55 -5 -140 -18 -190 -28 -49 -10 -127 -24
-173 -30 -45 -6 -102 -18 -125 -26 -26 -10 -109 -18 -222 -24 -99 -5 -211 -15
-250 -24 -38 -8 -113 -20 -166 -26 -53 -5 -113 -17 -133 -25 -21 -9 -89 -20
-151 -26 -113 -10 -258 -51 -295 -84 -8 -7 -46 -18 -85 -23 -65 -9 -110 -27
-193 -79 -19 -11 -51 -24 -73 -27 -38 -6 -75 -27 -124 -67 -11 -10 -39 -22
-61 -28 -23 -6 -59 -24 -80 -40 -22 -17 -50 -38 -64 -49 -14 -10 -38 -24 -55
-30 -16 -7 -41 -28 -53 -47 -14 -19 -38 -39 -58 -45 -19 -7 -38 -20 -44 -29
-5 -10 -35 -33 -66 -52 -31 -19 -78 -53 -104 -76 -26 -24 -63 -50 -83 -58 -33
-14 -40 -14 -66 -1 -16 9 -50 45 -76 81 -40 57 -121 141 -280 295 -23 21 -52
41 -66 45 -15 4 -46 26 -70 51 -23 24 -59 49 -78 55 -35 12 -76 37 -116 71
-11 9 -47 24 -80 32 -60 15 -169 55 -215 80 -14 8 -65 17 -115 21 -49 4 -111
16 -137 26 -26 10 -78 23 -115 29 -38 6 -106 19 -153 29 -47 11 -150 22 -230
26 -92 4 -172 13 -220 26 -41 10 -115 24 -164 30 -49 6 -101 15 -114 20 -13 5
-70 14 -126 20 -56 6 -119 19 -141 29 -22 11 -62 24 -88 30 -27 6 -65 17 -84
25 -19 8 -62 19 -95 25 -34 5 -68 16 -77 23 -9 8 -34 20 -56 27 -22 7 -57 21
-77 31 -21 11 -45 19 -54 19 -20 0 -181 77 -189 91 -4 5 -14 9 -23 9 -9 0 -27
6 -39 13 -24 14 -172 115 -218 149 -146 109 -334 301 -379 387 -10 20 -25 41
-32 46 -29 22 -74 89 -74 110 0 12 -7 28 -15 35 -25 20 -81 133 -94 187 -7 29
-19 57 -26 63 -20 16 -63 148 -75 228 -6 41 -18 88 -27 105 -9 18 -28 82 -42
142 -25 108 -25 117 -26 495 0 328 2 395 17 450 9 36 19 95 23 131 3 37 15 84
27 105 13 25 23 71 29 138 5 59 18 121 29 148 11 26 20 52 20 58 0 6 11 35 24
63 13 29 27 72 31 97 8 49 45 134 82 188 14 21 23 50 23 71 0 24 9 49 25 71
14 19 25 42 25 51 0 10 11 30 24 46 13 15 26 44 30 63 3 19 22 60 41 90 36 57
43 71 70 130 23 51 44 90 70 130 13 19 26 46 30 60 5 14 27 48 50 75 24 28 50
66 59 85 17 37 77 127 146 220 59 78 151 220 161 249 6 13 23 39 38 57 26 30
123 183 163 257 9 18 24 39 33 48 29 29 185 340 185 368 0 9 9 33 20 55 26 47
76 198 85 251 3 22 17 69 29 105 55 153 76 405 52 620 -31 268 -35 295 -51
330 -8 19 -24 78 -35 130 -27 135 -52 222 -72 252 -9 14 -20 39 -23 54 -10 44
-54 162 -86 228 -16 32 -29 66 -29 75 0 10 -7 26 -15 37 -8 10 -19 36 -25 57
-6 20 -22 54 -35 74 -47 68 -29 106 85 191 36 27 100 84 181 164 27 26 61 54
78 62 16 9 39 31 50 50 12 19 34 39 49 44 15 6 52 33 82 61 30 28 66 60 80 71
14 11 43 36 65 56 22 20 67 57 99 83 32 25 87 71 120 101 89 79 165 144 211
180 22 17 65 53 95 81 30 27 69 61 85 74 69 56 173 147 217 190 25 25 52 45
59 45 7 0 36 24 64 53 65 65 159 148 182 161 22 11 114 92 169 147 23 23 51
47 64 54 12 7 45 33 74 58 132 120 141 127 170 127 18 0 44 -13 72 -35 23 -19
46 -35 50 -35 10 0 109 -67 123 -83 6 -8 26 -21 44 -27 18 -7 54 -31 80 -53
28 -22 69 -45 97 -52 53 -14 155 -60 181 -82 9 -7 53 -18 98 -24 46 -5 93 -16
105 -23 11 -8 43 -19 70 -25 27 -7 63 -19 80 -28 66 -35 771 -36 826 -1 14 9
50 21 80 28 30 7 67 19 82 26 14 8 65 18 113 23 59 7 94 16 111 30 14 11 38
22 54 26 16 3 34 12 40 20 6 8 37 19 68 25 37 8 80 27 122 55 36 24 80 46 98
50 18 4 45 16 60 28 51 41 89 66 125 80 19 9 44 24 55 35 23 23 54 20 87 -8
11 -9 45 -29 76 -43 31 -15 68 -38 81 -52 14 -14 41 -30 59 -37 33 -11 64 -31
115 -75 14 -12 39 -25 56 -28 33 -8 135 -59 159 -81 8 -7 44 -18 80 -23 58 -8
150 -36 289 -87 39 -14 94 -16 395 -16 210 0 366 4 390 10 51 14 126 38 191
63 28 11 88 24 133 28 46 5 89 15 99 23 30 26 145 76 192 83 25 4 73 25 109
47 34 22 81 46 103 54 22 7 61 31 87 52 25 22 62 44 81 51 19 6 43 20 55 30
11 11 42 31 69 45 52 28 63 26 106 -17z"/>
<path d="M4400 11208 c-23 -18 -68 -57 -101 -85 -32 -29 -62 -53 -66 -53 -5 0
-34 -25 -67 -55 -32 -30 -62 -55 -67 -55 -5 0 -35 -24 -67 -52 -32 -29 -78
-69 -102 -88 -24 -19 -76 -66 -117 -105 -40 -38 -99 -91 -131 -117 -119 -99
-199 -167 -247 -211 -27 -26 -53 -47 -56 -47 -8 0 -137 -104 -204 -165 -158
-141 -245 -218 -350 -305 -36 -30 -95 -81 -130 -112 -35 -32 -69 -58 -74 -58
-20 0 -41 -32 -41 -62 0 -18 17 -58 44 -102 30 -49 46 -87 51 -123 4 -29 15
-63 25 -75 9 -13 21 -34 25 -48 4 -14 15 -39 25 -57 11 -18 23 -66 29 -107 6
-43 21 -94 36 -122 14 -26 25 -54 25 -63 0 -9 9 -42 20 -72 10 -31 22 -98 25
-150 4 -52 16 -139 28 -194 19 -86 22 -130 21 -310 0 -174 -3 -218 -17 -255
-10 -25 -22 -92 -28 -150 -10 -107 -45 -246 -79 -311 -11 -20 -23 -63 -29 -95
-9 -56 -60 -176 -80 -189 -5 -3 -15 -30 -21 -60 -6 -29 -20 -65 -31 -78 -10
-14 -19 -29 -19 -35 0 -5 -13 -26 -30 -47 -17 -21 -30 -50 -30 -65 0 -15 -10
-36 -24 -49 -14 -13 -42 -58 -62 -100 -21 -42 -55 -99 -75 -127 -21 -29 -41
-65 -45 -80 -4 -16 -29 -55 -56 -87 -26 -32 -48 -66 -48 -76 0 -10 -24 -48
-52 -84 -29 -36 -62 -80 -73 -96 -11 -17 -57 -85 -103 -151 -45 -66 -86 -130
-91 -143 -5 -12 -15 -28 -23 -35 -8 -7 -30 -45 -48 -84 -18 -40 -41 -82 -51
-94 -22 -23 -89 -153 -89 -170 0 -6 -7 -17 -15 -24 -18 -15 -85 -152 -85 -174
0 -8 -10 -27 -23 -43 -23 -28 -77 -152 -77 -177 0 -7 -11 -35 -25 -62 -14 -27
-39 -107 -56 -179 -17 -71 -42 -159 -55 -195 -36 -103 -73 -293 -84 -445 -6
-77 -15 -187 -20 -244 -5 -57 -8 -107 -5 -110 2 -4 11 -101 20 -216 9 -116 20
-226 24 -245 24 -99 55 -198 71 -225 10 -16 21 -46 25 -65 8 -37 17 -56 102
-225 30 -60 66 -121 79 -136 13 -14 24 -30 24 -37 0 -42 300 -339 380 -376 19
-9 64 -37 99 -61 35 -25 72 -45 81 -45 9 0 32 -10 51 -23 69 -46 111 -67 157
-78 26 -7 54 -18 63 -26 34 -29 203 -83 262 -83 15 0 46 -9 68 -21 22 -11 77
-26 122 -33 45 -8 100 -19 122 -24 22 -6 86 -16 142 -22 56 -6 126 -18 155
-26 29 -8 105 -21 168 -29 63 -8 147 -21 185 -29 39 -8 117 -18 175 -21 63 -4
129 -15 165 -27 33 -11 89 -24 125 -29 106 -15 282 -61 329 -86 24 -12 50 -23
58 -23 8 0 31 -9 51 -19 21 -11 54 -22 74 -26 20 -4 46 -18 59 -31 12 -13 29
-24 37 -24 9 0 34 -11 56 -24 23 -13 52 -27 66 -31 14 -4 39 -19 56 -34 17
-14 44 -35 60 -46 101 -72 212 -187 254 -264 25 -47 103 -47 146 0 10 11 34
27 53 35 19 8 40 23 47 33 13 19 100 82 152 111 15 8 43 27 62 41 19 14 42 29
50 33 8 3 42 21 75 40 81 46 184 95 215 103 14 3 45 16 70 28 52 27 198 75
226 75 11 0 37 9 58 21 21 11 83 29 136 39 54 10 115 23 136 29 22 6 78 15
126 21 48 6 105 17 128 25 39 14 184 33 570 75 96 10 199 26 227 34 29 8 85
18 125 21 103 9 328 51 423 80 44 13 100 27 125 31 55 8 178 47 228 73 20 10
57 22 82 26 25 4 89 29 144 56 54 27 106 49 115 49 9 0 32 11 51 25 19 14 39
25 46 25 7 0 25 11 41 24 16 14 43 28 59 32 16 4 40 16 54 26 14 11 42 32 64
49 21 16 44 29 51 29 7 0 37 23 66 50 29 28 56 50 60 50 4 0 38 25 74 55 37
30 71 55 74 55 10 0 291 282 291 292 0 4 25 35 55 68 30 33 55 64 55 69 0 5
21 31 46 57 25 27 52 64 59 82 8 18 35 57 60 88 25 31 45 64 45 73 0 10 22 45
49 78 26 34 52 74 55 89 4 16 27 61 52 100 24 38 47 86 50 105 4 19 17 54 30
79 43 84 72 165 79 220 3 30 15 69 25 85 11 17 22 51 26 75 4 25 13 57 21 73
7 15 20 80 28 145 7 64 21 134 30 155 9 21 20 91 25 155 6 64 17 185 26 267
15 137 15 161 1 275 -9 69 -19 166 -23 215 -3 50 -15 117 -26 150 -11 33 -26
112 -33 176 -7 63 -17 125 -24 136 -6 12 -16 45 -22 75 -6 29 -20 70 -31 91
-10 21 -25 70 -33 110 -21 111 -44 196 -70 263 -16 43 -26 93 -31 170 -4 60
-13 123 -20 141 -8 18 -18 81 -24 140 -5 59 -14 155 -20 213 -6 58 -8 137 -5
175 15 165 36 317 50 354 8 22 17 80 21 128 4 60 14 105 30 142 13 29 24 61
24 70 0 9 9 35 21 56 11 22 25 65 30 95 6 30 19 65 30 78 10 14 19 30 19 36 0
11 49 120 75 166 7 14 34 66 59 117 26 51 51 95 57 99 6 3 20 25 30 48 39 81
118 207 201 321 26 36 53 75 59 87 6 13 30 44 53 70 64 72 138 166 159 200 10
18 37 53 58 78 21 25 39 51 39 56 0 6 11 21 25 34 33 31 33 74 0 96 -13 9 -27
24 -30 34 -3 9 -26 37 -50 61 -25 24 -48 53 -51 64 -4 11 -27 43 -53 72 -25
28 -71 83 -101 123 -30 39 -78 99 -105 133 -28 34 -59 76 -69 92 -11 17 -34
48 -53 70 -18 22 -80 99 -138 170 -185 231 -239 298 -271 334 -17 20 -37 48
-45 62 -8 15 -33 49 -56 75 -94 110 -163 196 -163 205 0 5 -14 16 -31 24 -38
20 -79 13 -138 -26 -25 -16 -50 -29 -58 -29 -14 0 -98 -43 -143 -73 -14 -9
-46 -23 -70 -32 -52 -18 -60 -21 -161 -69 -41 -20 -83 -36 -93 -36 -9 0 -36
-8 -59 -19 -23 -10 -58 -22 -77 -26 -19 -4 -51 -16 -71 -26 -20 -10 -76 -25
-125 -34 -49 -9 -114 -23 -144 -30 -30 -8 -102 -18 -160 -24 -58 -6 -140 -16
-184 -22 -54 -7 -112 -7 -185 0 -250 24 -404 42 -427 52 -14 5 -58 16 -97 24
-40 8 -94 26 -121 40 -27 14 -55 25 -62 25 -8 0 -28 9 -46 20 -18 11 -41 20
-50 20 -9 0 -29 10 -45 23 -29 24 -154 87 -172 87 -6 0 -20 9 -31 20 -11 11
-43 34 -71 51 -43 27 -57 31 -97 26 -41 -4 -122 -37 -202 -82 -42 -23 -156
-75 -166 -75 -5 0 -21 -8 -34 -17 -28 -20 -121 -58 -195 -78 -27 -8 -68 -24
-90 -35 -21 -11 -48 -20 -60 -20 -11 0 -63 -9 -115 -20 -108 -23 -415 -60
-499 -60 -92 0 -391 30 -466 47 -38 9 -103 22 -144 29 -41 7 -93 22 -115 33
-23 11 -61 27 -86 35 -95 31 -163 56 -174 65 -23 18 -122 68 -161 81 -22 7
-49 20 -60 30 -11 10 -54 34 -95 55 -41 20 -90 47 -109 61 -45 32 -71 30 -121
-8z m680 -967 c125 -7 140 -10 199 -40 131 -67 164 -110 187 -249 14 -82 14
-95 -5 -202 -27 -157 -72 -251 -165 -343 -50 -49 -129 -105 -177 -127 l-26
-12 38 -72 c70 -130 95 -198 115 -311 8 -49 21 -100 29 -115 17 -34 58 -186
59 -224 2 -52 -34 -63 -229 -70 -273 -10 -324 7 -340 111 -3 26 -13 58 -21 70
-8 13 -21 53 -28 90 -24 120 -59 247 -76 283 -10 19 -20 47 -24 61 -15 67
-125 117 -145 67 -28 -70 -51 -176 -60 -269 -5 -59 -16 -120 -25 -137 -9 -17
-22 -72 -31 -124 -13 -82 -18 -96 -45 -120 -29 -27 -34 -28 -153 -30 -182 -2
-249 2 -279 20 -35 20 -38 29 -27 83 5 24 16 98 24 163 8 66 23 147 34 180 24
75 49 198 66 332 8 55 23 123 34 151 11 28 23 75 26 105 4 29 13 78 21 108 7
30 21 109 29 174 9 66 23 135 31 155 8 19 19 68 25 109 11 77 37 149 60 169 8
7 39 13 69 16 106 7 677 6 810 -2z m1155 -11 c15 -17 17 -30 11 -96 -4 -42
-15 -97 -25 -123 -11 -26 -24 -88 -30 -139 -6 -50 -16 -104 -22 -119 -5 -15
-17 -75 -25 -133 -8 -58 -23 -132 -34 -165 -28 -86 -62 -281 -61 -352 0 -46 7
-75 25 -112 27 -52 27 -52 130 -77 15 -4 60 -1 100 6 67 12 74 16 128 72 68
69 92 127 118 288 10 58 24 134 33 170 9 36 23 108 31 160 29 181 53 305 63
325 6 11 20 68 32 127 40 199 25 191 296 186 259 -4 256 -2 205 -158 -10 -31
-20 -105 -24 -168 -4 -63 -13 -128 -20 -146 -8 -18 -21 -64 -29 -102 -9 -38
-23 -83 -32 -101 -10 -19 -19 -80 -25 -162 -5 -72 -14 -140 -20 -150 -5 -11
-15 -43 -21 -73 -6 -29 -20 -70 -31 -91 -10 -21 -23 -64 -29 -95 -7 -39 -24
-78 -54 -122 -23 -36 -50 -78 -59 -95 -39 -74 -165 -188 -255 -230 -18 -9 -45
-25 -60 -35 -72 -53 -481 -75 -651 -36 -122 28 -280 146 -296 221 -3 16 -14
44 -24 60 -54 90 -56 359 -4 521 13 42 26 115 30 171 3 54 15 123 25 153 10
30 23 86 29 124 6 38 18 82 27 99 9 18 19 78 25 146 8 108 32 199 62 240 20
26 52 30 247 30 183 1 197 0 214 -19z m2574 -1 c19 -18 22 -28 17 -63 -3 -22
-8 -84 -12 -136 -7 -98 -33 -188 -61 -211 -11 -10 -67 -14 -219 -15 -146 0
-207 -4 -218 -13 -8 -7 -23 -47 -32 -89 -9 -42 -22 -88 -29 -102 -7 -14 -16
-50 -20 -80 -4 -30 -13 -82 -20 -115 -8 -33 -21 -112 -29 -176 -8 -64 -22
-134 -30 -155 -8 -22 -20 -67 -26 -101 -6 -34 -17 -84 -25 -110 -9 -26 -22
-94 -30 -149 -18 -130 -56 -214 -100 -226 -16 -5 -112 -9 -213 -11 -172 -2
-184 -1 -198 17 -23 32 -18 165 11 281 14 55 25 109 25 120 1 11 10 45 21 75
11 30 24 102 29 160 5 58 16 125 24 148 8 23 20 70 26 105 6 34 20 83 30 109
22 51 39 273 23 295 -6 9 -66 14 -193 19 -237 9 -236 7 -205 144 8 36 22 101
30 144 18 96 49 143 98 149 17 2 318 5 668 5 635 2 635 2 658 -19z m1004 -2
c29 -19 34 -39 47 -207 9 -115 18 -170 33 -210 4 -8 11 -78 17 -155 5 -77 17
-183 25 -235 8 -52 21 -158 30 -235 8 -77 22 -159 30 -182 8 -24 19 -109 25
-190 5 -82 14 -166 20 -188 17 -69 13 -101 -16 -124 -25 -20 -39 -21 -234 -21
-258 0 -254 -2 -265 122 -8 95 -24 142 -55 158 -14 8 -86 10 -226 8 l-205 -3
-28 -34 c-16 -19 -34 -50 -41 -70 -7 -20 -18 -43 -25 -51 -7 -8 -18 -34 -25
-58 -17 -64 -38 -70 -265 -73 -286 -3 -288 -2 -214 152 27 57 57 118 65 134 9
17 34 66 57 110 22 44 46 87 53 95 7 8 26 44 44 80 17 36 36 73 41 83 5 10 24
44 41 75 17 31 37 71 45 87 8 17 22 46 32 65 10 19 40 76 66 125 26 50 59 113
75 140 15 28 61 114 101 193 40 79 76 145 80 147 11 7 79 145 79 159 0 23 80
115 103 119 12 2 122 3 244 2 185 -1 225 -4 246 -18z m-1238 -3047 c44 -11
109 -24 145 -30 36 -6 76 -18 88 -27 13 -8 54 -19 90 -25 65 -10 184 -57 197
-78 3 -5 29 -17 58 -25 34 -10 69 -31 101 -60 27 -25 52 -45 56 -45 23 0 204
-198 248 -270 65 -108 90 -159 96 -192 4 -20 15 -56 26 -80 10 -24 26 -83 34
-133 9 -49 21 -112 27 -140 14 -64 15 -467 1 -560 -6 -38 -15 -108 -21 -155
-24 -191 -33 -242 -46 -273 -7 -17 -16 -70 -20 -117 -4 -47 -16 -105 -26 -129
-10 -24 -19 -54 -19 -67 0 -13 -12 -53 -26 -88 -14 -36 -32 -91 -39 -123 -14
-65 -60 -180 -81 -204 -8 -8 -14 -26 -14 -39 0 -30 -67 -170 -85 -177 -8 -2
-17 -21 -21 -41 -6 -37 -39 -98 -80 -150 -12 -15 -24 -40 -28 -55 -4 -16 -29
-56 -56 -88 -28 -33 -50 -64 -50 -70 0 -5 -20 -31 -43 -57 -24 -26 -48 -54
-53 -64 -19 -34 -246 -258 -262 -258 -5 0 -40 -25 -77 -55 -39 -32 -76 -55
-90 -55 -14 0 -32 -8 -42 -18 -27 -28 -133 -78 -180 -87 -23 -3 -47 -13 -54
-21 -6 -8 -32 -20 -58 -28 -25 -8 -62 -21 -82 -30 -20 -8 -67 -18 -105 -22
-38 -4 -87 -15 -109 -24 -22 -10 -84 -23 -137 -30 -54 -6 -112 -16 -130 -22
-47 -16 -628 -23 -698 -9 -30 6 -102 18 -160 26 -58 8 -130 24 -160 34 -30 11
-80 22 -111 25 -58 6 -176 53 -198 80 -7 9 -28 18 -46 22 -18 3 -57 23 -86 45
-30 22 -67 47 -83 57 -41 24 -256 244 -256 261 0 9 -52 98 -83 141 -9 13 -17
33 -17 42 0 10 -9 44 -21 76 -12 31 -27 82 -34 112 -7 30 -19 73 -27 95 -17
53 -17 714 1 790 6 28 18 97 26 155 8 57 21 123 29 145 8 22 17 73 20 113 6
66 15 104 71 277 9 28 27 91 39 142 13 51 28 98 33 105 6 7 18 39 27 70 9 31
20 59 25 63 5 3 12 23 16 44 3 22 17 54 31 72 13 18 24 37 24 43 0 14 127 264
158 312 15 22 37 56 49 75 62 93 375 409 406 409 5 0 35 20 68 45 32 25 73 51
91 57 18 6 40 16 48 23 31 25 126 73 157 80 18 3 74 27 123 52 63 31 110 47
154 53 34 4 77 15 94 24 17 9 66 21 109 26 43 6 107 18 143 27 143 36 755 38
905 3z m-2994 11 c20 -6 44 -26 58 -47 25 -35 25 -37 9 -83 -9 -25 -20 -71
-23 -101 -7 -65 -25 -141 -36 -156 -5 -5 -15 -59 -23 -120 -8 -60 -21 -127
-29 -149 -8 -22 -17 -71 -21 -109 -4 -38 -16 -94 -27 -125 -10 -31 -23 -92
-28 -137 -6 -44 -17 -98 -25 -120 -8 -21 -20 -77 -26 -124 -7 -46 -18 -100
-26 -119 -8 -19 -19 -80 -25 -135 -5 -56 -16 -119 -24 -141 -8 -22 -21 -84
-30 -138 -8 -54 -22 -111 -30 -127 -8 -15 -19 -66 -24 -112 -6 -45 -15 -96
-20 -113 -6 -16 -17 -74 -26 -128 -8 -54 -22 -115 -31 -135 -9 -20 -20 -88
-25 -151 -5 -62 -16 -128 -23 -145 -8 -18 -19 -66 -26 -107 -7 -41 -21 -95
-30 -120 -10 -25 -21 -88 -25 -140 -4 -52 -15 -119 -25 -149 -9 -30 -23 -86
-30 -125 -7 -38 -19 -82 -26 -97 -8 -15 -19 -81 -24 -147 -5 -66 -16 -139 -25
-163 -8 -24 -21 -77 -30 -117 -8 -40 -20 -82 -27 -94 -7 -12 -15 -53 -19 -90
-5 -56 -11 -74 -33 -95 l-26 -27 -621 -3 -621 -2 -34 34 c-38 38 -41 55 -20
118 8 24 17 66 21 93 3 28 14 77 25 110 10 33 21 98 25 145 4 47 15 110 25
140 10 30 24 84 30 119 6 35 18 80 25 100 8 20 19 79 25 131 6 52 20 127 30
165 25 93 66 292 79 388 6 43 17 90 25 106 8 15 18 52 21 82 4 30 15 88 26
129 10 41 23 110 29 154 5 43 18 97 29 120 10 23 21 69 25 102 4 32 16 97 26
144 10 47 25 127 33 178 l14 92 -23 0 c-13 0 -25 -4 -29 -9 -3 -5 -22 -15 -43
-21 -37 -12 -136 -72 -147 -90 -3 -5 -29 -16 -59 -24 -29 -9 -59 -23 -66 -31
-7 -8 -18 -15 -25 -15 -8 0 -26 -11 -42 -24 -15 -13 -44 -27 -63 -31 -19 -4
-62 -20 -95 -36 -33 -16 -66 -29 -73 -29 -7 0 -29 -8 -50 -19 -20 -10 -62 -22
-92 -26 -30 -4 -66 -13 -80 -21 -41 -23 -205 -74 -257 -80 -26 -3 -61 -15 -76
-26 -34 -24 -175 -50 -199 -37 -10 5 -22 17 -26 27 -12 23 12 199 38 277 11
33 24 103 30 156 5 52 16 111 24 130 7 19 19 82 26 141 7 64 21 130 35 165 23
56 26 58 97 90 40 18 82 33 94 33 11 0 56 9 100 21 43 12 102 25 129 31 28 5
66 18 85 28 51 27 189 80 209 80 9 0 32 11 51 25 19 14 38 25 43 25 9 0 117
54 212 106 33 18 78 41 100 52 22 10 46 26 54 35 7 10 19 17 26 17 7 0 28 12
48 28 20 15 52 38 72 52 157 109 349 295 419 408 14 23 30 42 35 42 6 0 12 9
16 20 11 35 63 63 129 69 125 12 922 14 957 2z"/>
<path d="M4647 9863 c-27 -7 -66 -102 -79 -193 -15 -110 -10 -115 120 -115
130 0 162 8 208 54 61 60 67 71 72 127 4 51 2 56 -29 85 -19 18 -50 36 -69 40
-37 9 -192 10 -223 2z"/>
<path d="M9423 9617 c-18 -18 -33 -38 -33 -43 0 -6 -11 -25 -25 -43 -13 -19
-29 -57 -35 -86 -7 -32 -28 -78 -55 -119 -77 -114 -64 -136 81 -136 83 0 104
3 115 17 22 26 13 444 -9 443 -4 0 -22 -15 -39 -33z"/>
<path d="M7880 6370 c-30 -11 -61 -20 -70 -20 -56 0 -254 -150 -320 -244 -19
-26 -45 -61 -57 -76 -13 -15 -23 -34 -23 -41 0 -20 -78 -177 -90 -181 -6 -2
-15 -32 -21 -68 -7 -36 -19 -81 -29 -100 -10 -19 -21 -51 -25 -70 -4 -19 -15
-48 -25 -65 -12 -19 -22 -67 -28 -131 -6 -56 -18 -116 -27 -133 -8 -17 -20
-57 -26 -88 -6 -31 -18 -67 -26 -80 -10 -15 -18 -64 -24 -145 -5 -67 -18 -171
-31 -232 -18 -93 -22 -145 -22 -316 -1 -175 2 -212 17 -250 10 -25 24 -70 31
-100 11 -46 22 -64 68 -110 48 -47 68 -59 144 -85 120 -40 214 -40 340 1 71
22 104 40 159 85 77 62 150 134 168 166 7 11 28 45 48 75 20 30 46 74 58 99
11 24 25 51 30 59 49 78 139 351 171 517 10 56 26 115 34 131 8 15 18 57 21
93 4 35 13 87 21 114 8 28 21 115 29 193 8 79 23 169 32 200 13 44 17 96 17
227 1 149 -2 178 -21 230 -11 33 -24 80 -28 104 -29 178 -301 310 -495 241z"/>
</g>
</svg>
